<?xml version="1.0" encoding="UTF-8" standalone="yes"?><svg id="图层_1" xmlns="http://www.w3.org/2000/svg" xmlns:xlink="http://www.w3.org/1999/xlink" version="1.2" baseProfile="tiny" x="0" y="0" width="256" height="256" viewBox="0 0 256 256"><defs/><g transform="matrix(1,0,0,1,-1e-06,-8.90231e-07)"><g transform="matrix(1.18498,0,0,1.18498,-23.6996,-23.6774)"><g><circle fill="#ffffff" stroke="#c00000" stroke-width="1" stroke-opacity="1" cx="127.8" cy="128" r="104.7"/><path fill="#83dfff" stroke="#c00000" stroke-width="1" stroke-opacity="1" d="M 127.8 35.9 C 76.9 35.9 35.7 77.1 35.7 128 C 35.7 178.9 76.9 220.1 127.8 220.1 C 178.7 220.1 219.9 178.9 219.9 128 C 219.8 77.1 178.6 35.9 127.8 35.9 M 74.9 90.1 C 86.7 73.7 106 63 127.8 63 C 163.7 63 192.9 92.1 192.9 128.1 C 192.9 164.1 163.8 193.2 127.8 193.2 C 91.9 193.2 62.7 164.1 62.7 128.1 C 62.7 113.8 67.2 100.7 74.9 90.1"/><circle fill="#ffe200" stroke="#c00000" stroke-width="1" stroke-opacity="1" cx="127.8" cy="128" r="54.1"/><circle fill="#ffffff" stroke="#c00000" stroke-width="1" stroke-opacity="1" cx="127.8" cy="128" r="28.2"/><g><path stroke="#c00000" stroke-width="1" stroke-opacity="1" d="M 127.8 26.3 C 147.5 26.3 166.7 32 183.2 42.7 C 184.6 43.6 186.5 43.2 187.4 41.8 C 188.3 40.4 187.9 38.5 186.5 37.6 C 169 26.2 148.7 20.2 127.8 20.2 C 68.3 20.2 20 68.6 20 128 C 20 153 28.7 177.3 44.6 196.5 C 45.2 197.2 46 197.6 46.9 197.6 C 47.6 197.6 48.3 197.4 48.8 196.9 C 50.1 195.9 50.3 194 49.2 192.7 C 34.3 174.6 26 151.6 26 128 C 26 71.9 71.6 26.2 127.8 26.3 Z"/><path stroke="#c00000" stroke-width="1" stroke-opacity="1" d="M 216.5 66.7 C 215.5 65.3 213.7 64.9 212.3 65.9 C 210.9 66.9 210.6 68.7 211.5 70.1 C 223.3 87.2 229.6 107.2 229.6 128.1 C 229.6 184.2 183.9 229.9 127.8 229.9 C 104.4 229.9 81.7 221.8 63.6 207.1 C 62.3 206 60.4 206.2 59.4 207.5 C 58.3 208.8 58.5 210.7 59.8 211.7 C 79 227.2 103.1 235.8 127.8 235.8 C 187.2 235.8 235.5 187.4 235.7 128.1 C 235.7 106 229.1 84.8 216.5 66.7 Z"/><path stroke="#c00000" stroke-width="1" stroke-opacity="1" d="M 167.2 75 C 168.1 73.6 167.8 71.7 166.4 70.8 C 155 63.1 141.6 59 127.8 59 C 113.4 59 99.7 63.4 87.9 71.6 C 86.6 72.6 86.2 74.4 87.2 75.8 C 87.8 76.7 88.8 77.1 89.7 77.1 C 90.3 77.1 90.9 76.9 91.5 76.5 C 102.2 69 114.7 65 127.8 65 C 140.4 65 152.6 68.8 163 75.8 C 164.4 76.7 166.3 76.4 167.2 75 Z"/><path stroke="#c00000" stroke-width="1" stroke-opacity="1" d="M 76.2 86.7 C 74.9 85.8 73 86.1 72 87.4 C 63.4 99.2 58.8 113.3 58.8 128 C 58.8 166.1 89.8 197 127.8 197 C 165.8 197 196.7 166 196.8 128 C 196.8 113.5 192.4 99.6 184 87.9 C 183 86.5 181.1 86.2 179.8 87.2 C 178.4 88.2 178.1 90.1 179.1 91.4 C 186.7 102.1 190.8 114.8 190.8 128 C 190.8 162.8 162.5 191 127.8 191 C 93 191 64.8 162.7 64.8 128 C 64.8 114.6 69 101.7 76.9 90.9 C 77.8 89.6 77.5 87.7 76.2 86.7 Z"/><path stroke="#c00000" stroke-width="1" stroke-opacity="1" d="M 130.2 102.3 C 132.6 102.5 135 103.1 137.3 104 C 137.7 104.1 138 104.2 138.4 104.2 C 139.6 104.2 140.7 103.5 141.3 102.3 C 141.9 100.8 141.1 99 139.6 98.4 C 136.8 97.3 133.8 96.6 130.8 96.3 C 129.1 96.1 127.7 97.4 127.5 99 C 127.3 100.7 128.6 102.1 130.2 102.3 Z"/><path stroke="#c00000" stroke-width="1" stroke-opacity="1" d="M 121.4 102.8 C 121.6 102.8 121.9 102.8 122.1 102.7 C 122.5 102.6 122.8 102.6 123.2 102.5 C 124.8 102.2 125.9 100.6 125.6 99 C 125.3 97.4 123.7 96.3 122.1 96.6 C 121.7 96.7 121.2 96.8 120.8 96.9 C 119.2 97.3 118.1 98.9 118.5 100.5 C 118.8 101.8 120 102.8 121.4 102.8 Z"/><path stroke="#c00000" stroke-width="1" stroke-opacity="1" d="M 114.4 105.8 C 115.8 105 116.3 103.1 115.4 101.7 C 114.6 100.3 112.7 99.8 111.3 100.7 C 101.7 106.5 95.9 116.7 95.9 128 C 95.9 145.6 110.2 159.9 127.8 159.9 C 145.3 159.9 159.6 145.6 159.7 127.8 C 159.7 123.1 158.7 118.5 156.7 114.3 C 156 112.8 154.2 112.2 152.7 112.9 C 151.2 113.6 150.6 115.4 151.3 116.9 C 152.9 120.4 153.7 124.1 153.7 127.9 C 153.7 142.2 142.1 153.8 127.8 153.8 C 113.5 153.8 101.9 142.2 101.9 127.9 C 101.9 118.8 106.6 110.5 114.4 105.8 Z"/></g><polygon fill="#e0e7ea" stroke="#c00000" stroke-width="1" stroke-opacity="1" points="233,35.6 219.1,35.6 219.1,23.3 185.5,55.9 184.3,70.6 199.1,68.4"/><path stroke="#c00000" stroke-width="1" stroke-opacity="1" d="M 235.8 34.5 C 235.3 33.4 234.2 32.6 233 32.6 L 222.1 32.6 L 222.1 23.3 C 222.1 22.1 221.4 21 220.3 20.5 C 219.2 20 217.9 20.3 217 21.1 L 183.4 53.7 C 182.9 54.2 182.6 54.9 182.5 55.6 L 181.4 69.2 L 129.4 121.2 L 127.7 119.5 C 127.3 119.1 126.8 119 126.2 119.1 C 125.7 119.2 125.3 119.6 125.1 120.2 L 122.3 130.9 C 122.2 131.4 122.3 132 122.7 132.3 C 123 132.6 123.4 132.7 123.8 132.7 C 123.9 132.7 124.1 132.7 124.2 132.6 L 134.9 129.7 C 135.4 129.6 135.8 129.2 136 128.6 C 136.1 128.1 136 127.5 135.6 127.2 L 133.7 125.4 L 185.9 73.2 L 199.5 71.2 C 200.1 71.1 200.7 70.8 201.1 70.4 L 235 37.6 C 236 36.9 236.3 35.6 235.8 34.5 M 194.1 66.1 L 187.6 67.1 L 188.4 57.3 L 195.2 50.7 L 194.1 66.1 M 206.8 56.8 L 200.4 63 L 201.7 44.8 C 201.7 44.7 201.7 44.6 201.7 44.5 L 208 38.4 L 206.8 56.8 M 213.2 50.6 L 214.3 32.2 L 216.2 30.4 L 216.2 35.6 C 216.2 36.4 216.5 37.2 217.1 37.7 C 217.7 38.3 218.4 38.6 219.2 38.6 L 225.7 38.6 L 213.2 50.6"/></g></g></g></svg>
